<svg width="28" height="26" viewBox="0 0 28 26" fill="none" xmlns="http://www.w3.org/2000/svg">
<path d="M27.2251 7.185L14.5938 0.36875C14.2226 0.16875 13.7763 0.16875 13.4063 0.36875L0.781319 7.185C0.173819 7.515 -0.0524313 8.2725 0.275069 8.88C0.500069 9.29875 0.931319 9.53625 1.37507 9.53625C1.57507 9.53625 1.78007 9.48875 1.96882 9.38625L2.88632 8.89125L4.87382 22.9537C5.14382 24.4712 6.51132 25.5312 8.19882 25.5312H19.8013C21.4888 25.5312 22.8563 24.4712 23.1288 22.9212L25.1138 8.89L26.0351 9.3875C26.6413 9.71625 27.4001 9.49 27.7276 8.8825C28.0563 8.275 27.8276 7.51625 27.2226 7.18875L27.2251 7.185ZM14.0001 17.2912C11.7563 17.2912 9.93757 15.4725 9.93757 13.2287C9.93757 10.985 11.7563 9.16625 14.0001 9.16625C16.2438 9.16625 18.0626 10.985 18.0626 13.2287C18.0626 15.4725 16.2438 17.2912 14.0001 17.2912Z" fill="#0000ff"/>
</svg>